<svg xmlns="http://www.w3.org/2000/svg" data-name="Layer 1" viewBox="0 0 64 64"><circle cx="30" cy="30" r="1"/><path d="M58,29a1,1,0,0,0,1-1V21.86a4,4,0,1,0-2,0V27H40V24H37V7h5.14a4,4,0,1,0,0-2H36a1,1,0,0,0-1,1V24H33V14H31V24H29V6a1,1,0,0,0-1-1H21.86a4,4,0,1,0,0,2H27V24H24v3H7V21.86a4,4,0,1,0-2,0V28a1,1,0,0,0,1,1H24v2H14v2H24v2H6a1,1,0,0,0-1,1v6.14a4,4,0,1,0,2,0V37H24v3h3V57H21.86a4,4,0,1,0,0,2H28a1,1,0,0,0,1-1V40h2V50h2V40h2V58a1,1,0,0,0,1,1h6.14a4,4,0,1,0,0-2H37V40h3V37H57v5.14a4,4,0,1,0,2,0V36a1,1,0,0,0-1-1H40V33H50V31H40V29ZM33,37H27V35h6Zm-3-4a3,3,0,1,1,3-3A3,3,0,0,1,30,33Zm7,0H35V27h2Z"/></svg>