<svg width="82" height="82" viewBox="0 0 82 82" fill="none" xmlns="http://www.w3.org/2000/svg">
<rect width="82" height="82" rx="24" fill="#060523"/>
<path d="M49.2145 19.3354C50.0351 19.3867 50.6682 20.09 50.6464 20.926V23.1683C57.1652 23.8007 60.5 27.4037 60.5 33.8814V51.8003C60.5 59.0062 56.3928 62.6667 48.3101 62.6667H33.6899C25.6072 62.6667 21.5 59.0062 21.5 51.8003V33.8814C21.5 29.5693 22.9696 26.4838 25.9841 24.6823L26.1955 24.5618C26.6325 24.3578 27.145 24.3765 27.571 24.6239C28.068 24.9124 28.3615 25.4624 28.3287 26.0435C28.2958 26.6246 27.9422 27.1367 27.4159 27.3654C25.4188 28.5536 24.4768 30.6234 24.4768 33.8814V34.4563H51.9652C52.7872 34.4563 53.4536 35.1341 53.4536 35.9703C53.4536 36.8065 52.7872 37.4843 51.9652 37.4843H24.4768V51.8003C24.4768 57.3006 27.1522 59.5812 33.6899 59.6195H48.3101C54.7536 59.6195 57.5043 57.2814 57.5043 51.7812V33.8622C57.5043 29.071 55.413 26.7521 50.6464 26.1963V27.6528C50.5364 28.4292 49.8682 28.9959 49.0977 28.9663C48.3272 28.9368 47.7028 28.3204 47.6507 27.5379V20.7919L47.6783 20.5522C47.7396 20.2382 47.8978 19.9498 48.133 19.7308C48.4269 19.457 48.8165 19.3146 49.2145 19.3354ZM50.0718 50.0935L50.3117 50.109C50.7231 50.1606 51.1089 50.3492 51.4067 50.6492C51.7642 51.0091 51.9652 51.4995 51.9652 52.0111C51.9652 53.0696 51.1217 53.9276 50.0812 53.9276C49.0406 53.9276 48.1971 53.0696 48.1971 52.0111C48.1971 50.9527 49.0406 50.0947 50.0812 50.0947L50.0718 50.0935ZM41.0377 50.0947L41.274 50.1096C42.203 50.2279 42.9217 51.0341 42.9217 52.0111C42.9217 53.0696 42.0782 53.9276 41.0377 53.9276C39.9971 53.9276 39.1536 53.0696 39.1536 52.0111C39.1536 50.9527 39.9971 50.0947 41.0377 50.0947ZM32.004 50.0935L32.2436 50.109C32.655 50.1606 33.0408 50.3492 33.3386 50.6492C33.696 51.0091 33.8971 51.4995 33.8971 52.0111C33.8971 53.0696 33.0536 53.9276 32.013 53.9276C30.9725 53.9276 30.129 53.0696 30.129 52.0111C30.129 50.9527 30.9725 50.0947 32.013 50.0947L32.004 50.0935ZM50.0718 42.3325L50.3117 42.3473C50.7231 42.3989 51.1089 42.5875 51.4067 42.8875C51.7642 43.2474 51.9652 43.7378 51.9652 44.2495C51.9652 45.3079 51.1217 46.1659 50.0812 46.1659C49.0406 46.1659 48.1971 45.3079 48.1971 44.2495C48.1971 43.191 49.0406 42.333 50.0812 42.333L50.0718 42.3325ZM41.0377 42.333L41.274 42.3479C42.203 42.4662 42.9217 43.2724 42.9217 44.2495C42.9217 45.3079 42.0782 46.1659 41.0377 46.1659C39.9971 46.1659 39.1536 45.3079 39.1536 44.2495C39.1536 43.191 39.9971 42.333 41.0377 42.333ZM32.004 42.3325L32.2436 42.3473C32.655 42.3989 33.0408 42.5875 33.3386 42.8875C33.696 43.2474 33.8971 43.7378 33.8971 44.2495C33.8971 45.3079 33.0536 46.1659 32.013 46.1659C30.9725 46.1659 30.129 45.3079 30.129 44.2495C30.129 43.191 30.9725 42.333 32.013 42.333L32.004 42.3325ZM32.8514 19.564C33.6188 19.564 34.2636 20.1504 34.3493 20.926V23.015H42.8652C43.6872 23.015 44.3536 23.6928 44.3536 24.529C44.3536 25.3652 43.6872 26.043 42.8652 26.043H34.3116V27.557C34.3116 27.9619 34.1522 28.3499 33.869 28.6344C33.5858 28.9189 33.2024 29.0762 32.8043 29.071L32.5867 29.0493C31.8776 28.9247 31.344 28.2914 31.3535 27.5379V20.926L31.3956 20.6994C31.5695 20.039 32.1609 19.564 32.8514 19.564Z" fill="#F5F6F6"/>
</svg>
