<svg width="82" height="82" viewBox="0 0 82 82" fill="none" xmlns="http://www.w3.org/2000/svg">
<rect width="82" height="82" rx="24" fill="#060523"/>
<path d="M55.4375 33.2563V33.125C55.4375 27.35 50.7125 22.625 44.9375 22.625H37.0625C31.2875 22.625 26.5625 27.35 26.5625 33.125V33.2563C24.3312 33.7813 22.625 35.8813 22.625 38.375V44.9375C22.625 47.825 24.9875 50.1875 27.875 50.1875H30.5C33.3875 50.1875 35.75 47.825 35.75 44.9375V38.375C35.75 35.8813 34.0437 33.9125 31.8125 33.2563V33.125C31.8125 30.2375 34.175 27.875 37.0625 27.875H44.9375C47.825 27.875 50.1875 30.2375 50.1875 33.125V33.2563C47.9562 33.7813 46.25 35.8813 46.25 38.375V44.9375C46.25 47.1688 47.6938 49.1375 49.7938 49.925C48.875 52.2875 46.3813 54.125 43.625 54.125H39.6875C38.2437 54.125 37.0625 55.3063 37.0625 56.75C37.0625 58.1937 38.2437 59.375 39.6875 59.375H43.625C49.2688 59.375 53.9937 55.4375 55.175 50.0562C57.5375 49.5312 59.375 47.4312 59.375 44.9375V38.375C59.375 35.8813 57.6688 33.9125 55.4375 33.2563ZM27.875 44.9375V38.375H30.5V44.9375H27.875ZM51.5 44.9375V38.375H54.125V44.9375H51.5Z" fill="#F5F6F6"/>
</svg>
