<svg xmlns="http://www.w3.org/2000/svg" enable-background="new 0 0 32 32" viewBox="0 0 32 32"><path fill="#6c5af2" d="M27,10.1c0,0,0-0.1,0-0.1c0-4.4-3.6-8-8-8h-6c-4.4,0-8,3.6-8,8c0,0,0,0.1,0,0.1c-1.7,0.4-3,2-3,3.9v5
		c0,2.2,1.8,4,4,4h2c2.2,0,4-1.8,4-4v-5c0-1.9-1.3-3.4-3-3.9c0,0,0-0.1,0-0.1c0-2.2,1.8-4,4-4h6c2.2,0,4,1.8,4,4c0,0,0,0.1,0,0.1
		c-1.7,0.4-3,2-3,3.9v5c0,1.7,1.1,3.2,2.7,3.8C22,24.6,20.1,26,18,26h-3c-1.1,0-2,0.9-2,2s0.9,2,2,2h3c4.3,0,7.9-3,8.8-7.1
		c1.8-0.4,3.2-2,3.2-3.9v-5C30,12.1,28.7,10.6,27,10.1z M6,19v-5h2l0,5H6z M24,19v-5h2l0,5H24z"/></svg>