<svg width="100" height="26" viewBox="0 0 100 26" fill="none" xmlns="http://www.w3.org/2000/svg">
<path d="M7.204 0.799998C9.172 0.799998 10.648 1.328 11.632 2.384C12.616 3.44 13.108 4.988 13.108 7.028V19.772C13.108 21.812 12.616 23.36 11.632 24.416C10.648 25.472 9.172 26 7.204 26H0.94V0.799998H7.204ZM4.9 22.4H7.132C7.78 22.4 8.272 22.208 8.608 21.824C8.968 21.44 9.148 20.816 9.148 19.952V6.848C9.148 5.984 8.968 5.36 8.608 4.976C8.272 4.592 7.78 4.4 7.132 4.4H4.9V22.4ZM24.4553 26L23.7713 21.428H18.9113L18.2273 26H14.5913L18.6233 0.799998H24.4193L28.4513 26H24.4553ZM23.2313 18.008L21.3233 5.264L19.4153 18.008H23.2313ZM33.8235 26H30.2595V0.799998H35.2275L39.2955 15.884V0.799998H42.8235V26H38.7555L33.8235 7.748V26ZM53.9388 26C53.7948 25.592 53.6988 25.208 53.6508 24.848C53.6028 24.488 53.5788 23.84 53.5788 22.904V18.944C53.5788 17.792 53.3748 16.976 52.9668 16.496C52.5588 15.992 51.8988 15.74 50.9868 15.74H49.6188V26H45.6588V0.799998H51.6348C53.6748 0.799998 55.1628 1.28 56.0988 2.24C57.0348 3.176 57.5028 4.628 57.5028 6.596V8.576C57.5028 11.168 56.6388 12.872 54.9108 13.688C55.8468 14.072 56.5188 14.72 56.9268 15.632C57.3348 16.52 57.5388 17.66 57.5388 19.052V22.94C57.5388 23.66 57.5628 24.248 57.6108 24.704C57.6588 25.136 57.7788 25.568 57.9708 26H53.9388ZM49.6188 12.14H51.1668C51.9588 12.14 52.5468 11.936 52.9308 11.528C53.3388 11.12 53.5428 10.436 53.5428 9.476V6.992C53.5428 6.08 53.3748 5.42 53.0388 5.012C52.7268 4.604 52.2228 4.4 51.5268 4.4H49.6188V12.14ZM69.5391 11.42V15.02H64.1031V22.4H70.9431V26H60.1431V0.799998H70.9431V4.4H64.1031V11.42H69.5391ZM76.925 26H73.361V0.799998H78.329L82.397 15.884V0.799998H85.925V26H81.857L76.925 7.748V26ZM99.8483 0.799998V4.4H95.7083V26H91.7483V4.4H87.6083V0.799998H99.8483Z" fill="#060523"/>
</svg>
