<svg width="131" height="34" viewBox="0 0 131 34" fill="none" xmlns="http://www.w3.org/2000/svg">
<path d="M9.272 0.201023C11.896 0.201023 13.864 0.905024 15.176 2.31302C16.488 3.72102 17.144 5.78502 17.144 8.50502V25.497C17.144 28.217 16.488 30.281 15.176 31.689C13.864 33.097 11.896 33.801 9.272 33.801H0.92V0.201023H9.272ZM6.2 29.001H9.176C10.04 29.001 10.696 28.745 11.144 28.233C11.624 27.721 11.864 26.889 11.864 25.737V8.26503C11.864 7.11302 11.624 6.28102 11.144 5.76902C10.696 5.25702 10.04 5.00102 9.176 5.00102H6.2V29.001ZM31.9738 33.801L31.0618 27.705H24.5818L23.6698 33.801H18.8218L24.1978 0.201023H31.9258L37.3018 33.801H31.9738ZM30.3418 23.145L27.7978 6.15302L25.2538 23.145H30.3418ZM44.1646 33.801H39.4126V0.201023H46.0366L51.4606 20.313V0.201023H56.1646V33.801H50.7406L44.1646 9.46502V33.801ZM70.685 33.801C70.493 33.257 70.365 32.745 70.301 32.265C70.237 31.785 70.205 30.921 70.205 29.673V24.393C70.205 22.857 69.933 21.769 69.389 21.129C68.845 20.457 67.965 20.121 66.749 20.121H64.925V33.801H59.645V0.201023H67.613C70.333 0.201023 72.317 0.841023 73.565 2.12102C74.813 3.36902 75.437 5.30502 75.437 7.92902V10.569C75.437 14.025 74.285 16.297 71.981 17.385C73.229 17.897 74.125 18.761 74.669 19.977C75.213 21.161 75.485 22.681 75.485 24.537V29.721C75.485 30.681 75.517 31.465 75.581 32.073C75.645 32.649 75.805 33.225 76.061 33.801H70.685ZM64.925 15.321H66.989C68.045 15.321 68.829 15.049 69.341 14.505C69.885 13.961 70.157 13.049 70.157 11.769V8.45703C70.157 7.24102 69.933 6.36102 69.485 5.81703C69.069 5.27302 68.397 5.00102 67.469 5.00102H64.925V15.321ZM91.1855 14.361V19.161H83.9375V29.001H93.0575V33.801H78.6575V0.201023H93.0575V5.00102H83.9375V14.361H91.1855ZM100.733 33.801H95.9814V0.201023H102.605L108.029 20.313V0.201023H112.733V33.801H107.309L100.733 9.46502V33.801ZM130.998 0.201023V5.00102H125.478V33.801H120.198V5.00102H114.678V0.201023H130.998Z" fill="#E76A3B"/>
</svg>
