<svg xmlns="http://www.w3.org/2000/svg" viewBox="0 0 32 32"><g data-name="15-electricity"><path d="M25.18 8.82H6.82V3.18H25.18zm-16.36-2H23.18V5.18H8.82zM25.18 28.82H6.82V23.18H25.18zm-16.36-2H23.18V25.18H8.82z"/><rect width="7.27" height="2" x="12.36" y="11"/><rect width="7.27" height="2" x="12.36" y="15"/><rect width="7.27" height="2" x="12.36" y="19"/><polygon points="5.27 22.25 3.46 21.39 5.79 16.45 3.77 16.45 7.1 9.56 8.9 10.44 6.96 14.46 8.94 14.46 5.27 22.25"/><polygon points="24.92 22.2 23.08 21.44 25.14 16.45 22.95 16.45 26.76 9.52 28.51 10.48 26.33 14.46 28.13 14.46 24.92 22.2"/></g></svg>