<svg width="82" height="82" viewBox="0 0 82 82" fill="none" xmlns="http://www.w3.org/2000/svg">
<rect width="82" height="82" rx="24" fill="#060523"/>
<path d="M27.5 46.0625C27.0524 46.0625 26.6232 46.2403 26.3068 46.5568C25.9903 46.8732 25.8125 47.3024 25.8125 47.75C25.8125 48.1976 25.9903 48.6268 26.3068 48.9432C26.6232 49.2597 27.0524 49.4375 27.5 49.4375H41C41.4476 49.4375 41.8768 49.2597 42.1932 48.9432C42.5097 48.6268 42.6875 48.1976 42.6875 47.75C42.6875 47.3024 42.5097 46.8732 42.1932 46.5568C41.8768 46.2403 41.4476 46.0625 41 46.0625H27.5Z" fill="#F5F6F6"/>
<path fill-rule="evenodd" clip-rule="evenodd" d="M25.25 23C23.4598 23 21.7429 23.7112 20.477 24.977C19.2112 26.2429 18.5 27.9598 18.5 29.75V52.25C18.5 54.0402 19.2112 55.7571 20.477 57.023C21.7429 58.2888 23.4598 59 25.25 59H56.75C58.5402 59 60.2571 58.2888 61.523 57.023C62.7888 55.7571 63.5 54.0402 63.5 52.25V29.75C63.5 27.9598 62.7888 26.2429 61.523 24.977C60.2571 23.7112 58.5402 23 56.75 23H25.25ZM56.75 26.375H25.25C24.3549 26.375 23.4964 26.7306 22.8635 27.3635C22.2306 27.9964 21.875 28.8549 21.875 29.75V32.5625H60.125V29.75C60.125 28.8549 59.7694 27.9964 59.1365 27.3635C58.5035 26.7306 57.6451 26.375 56.75 26.375ZM21.875 52.25V35.9375H60.125V52.25C60.125 53.1451 59.7694 54.0035 59.1365 54.6365C58.5035 55.2694 57.6451 55.625 56.75 55.625H25.25C24.3549 55.625 23.4964 55.2694 22.8635 54.6365C22.2306 54.0035 21.875 53.1451 21.875 52.25Z" fill="#F5F6F6"/>
</svg>
