<svg width="82" height="82" viewBox="0 0 82 82" fill="none" xmlns="http://www.w3.org/2000/svg">
<rect width="82" height="82" rx="24" fill="#060523"/>
<g clip-path="url(#clip0_10_369)">
<path d="M37.7188 20C37.3961 20.0006 37.085 20.1201 36.8448 20.3356C36.6047 20.551 36.4523 20.8474 36.4168 21.1681L35.9495 25.2894C35.0942 25.5651 34.2629 25.9101 33.4637 26.321L30.2192 23.738C29.9669 23.5362 29.649 23.4345 29.3265 23.4524C29.0039 23.4704 28.6993 23.6066 28.4709 23.8351L23.8299 28.4709C23.6028 28.699 23.4675 29.0025 23.4496 29.3239C23.4316 29.6452 23.5324 29.962 23.7328 30.2139L26.321 33.4689C25.9113 34.2683 25.5672 35.0996 25.292 35.9548L21.1629 36.4115C20.8413 36.4484 20.5448 36.6028 20.3301 36.8451C20.1155 37.0873 19.9979 37.4003 20 37.724V44.2812C19.9992 44.604 20.1174 44.9157 20.3319 45.1569C20.5464 45.3981 20.8422 45.5517 21.1629 45.5885L25.2842 46.0505C25.5624 46.9062 25.9089 47.7358 26.321 48.5364L23.7328 51.7809C23.531 52.0332 23.4293 52.351 23.4472 52.6736C23.4651 52.9961 23.6014 53.3008 23.8299 53.5291L28.4709 58.1701C28.6999 58.3979 29.0049 58.5332 29.3275 58.5501C29.65 58.5671 29.9675 58.4645 30.2192 58.262L33.4637 55.679C34.2643 56.0885 35.0912 56.4324 35.9495 56.708L36.4168 60.8293C36.4517 61.1504 36.6038 61.4475 36.844 61.6635C37.0842 61.8795 37.3957 61.9993 37.7188 62H44.2813C44.6031 61.9995 44.9136 61.8808 45.1536 61.6664C45.3937 61.452 45.5466 61.1569 45.5833 60.8371L46.0505 56.7159C46.9063 56.4376 47.7358 56.0964 48.5364 55.6842L51.7809 58.2673C52.0332 58.4691 52.351 58.5707 52.6736 58.5528C52.9962 58.5349 53.3008 58.3986 53.5292 58.1701L58.1702 53.5291C58.3987 53.3008 58.5349 52.9961 58.5528 52.6736C58.5708 52.351 58.4691 52.0332 58.2673 51.7809L55.679 48.5364C56.0885 47.7358 56.4324 46.9062 56.708 46.0505L60.8372 45.5885C61.1578 45.5517 61.4537 45.3981 61.6682 45.1569C61.8827 44.9157 62.0008 44.604 62 44.2812V37.724C62.0008 37.4012 61.8827 37.0895 61.6682 36.8484C61.4537 36.6072 61.1578 36.4535 60.8372 36.4167L56.7159 35.9548C56.4382 35.0994 56.0915 34.268 55.679 33.4689L58.2673 30.2191C58.4676 29.9672 58.5684 29.6505 58.5505 29.3291C58.5326 29.0078 58.3972 28.7042 58.1702 28.4761L53.5292 23.8325C53.3008 23.604 52.9962 23.4677 52.6736 23.4498C52.351 23.4319 52.0332 23.5336 51.7809 23.7354L48.5364 26.3184C47.7371 25.9085 46.9057 25.5644 46.0505 25.2894L45.5833 21.1708C45.5484 20.8496 45.3963 20.5525 45.156 20.3365C44.9158 20.1205 44.6043 20.0007 44.2813 20H37.7188ZM38.8869 22.625H43.1079L43.5279 26.342C43.5576 26.6058 43.6665 26.8544 43.8404 27.055C44.0143 27.2555 44.2449 27.3987 44.5018 27.4655C45.7618 27.791 46.9693 28.2898 48.0902 28.9513C48.3193 29.0873 48.5844 29.1504 48.8503 29.1321C49.1162 29.1138 49.3702 29.015 49.5785 28.8489L52.5002 26.5205L55.4848 29.4999L53.1564 32.4268C52.9906 32.6341 52.8915 32.8868 52.8723 33.1516C52.8531 33.4164 52.9146 33.6808 53.0488 33.9099C53.7103 35.0307 54.2117 36.2435 54.5398 37.5035C54.6071 37.7599 54.7504 37.9899 54.9509 38.1633C55.1515 38.3367 55.3998 38.4453 55.6633 38.4748L59.375 38.8948V43.1131L55.6633 43.5331C55.3998 43.5626 55.1515 43.6712 54.9509 43.8446C54.7504 44.0179 54.6071 44.248 54.5398 44.5044C54.2143 45.7644 53.7077 46.9719 53.0488 48.0954C52.9142 48.3242 52.8523 48.5885 52.871 48.8532C52.8898 49.118 52.9883 49.3709 53.1538 49.5785L55.4848 52.5054L52.5002 55.4847L49.5785 53.1564C49.3704 52.9898 49.1166 52.8906 48.8507 52.8718C48.5848 52.8531 48.3196 52.9157 48.0902 53.0514C46.9695 53.7147 45.7617 54.2183 44.5018 54.5476C44.2453 54.6143 44.0149 54.757 43.8411 54.9571C43.6673 55.1572 43.5581 55.4052 43.5279 55.6685L43.1079 59.375H38.8922L38.4722 55.6632C38.4425 55.3995 38.3335 55.1509 38.1596 54.9503C37.9858 54.7497 37.7552 54.6066 37.4983 54.5397C36.2389 54.2138 35.0311 53.7137 33.9099 53.054C33.6808 52.9179 33.4156 52.8549 33.1498 52.8732C32.8839 52.8914 32.6299 52.9902 32.4215 53.1564L29.4999 55.4847L26.5153 52.5054L28.8437 49.5785C29.0095 49.3712 29.1086 49.1184 29.1278 48.8536C29.147 48.5889 29.0854 48.3245 28.9513 48.0954C28.2899 46.9744 27.788 45.7666 27.4603 44.507C27.3935 44.2501 27.2503 44.0195 27.0497 43.8456C26.8491 43.6718 26.6006 43.5628 26.3368 43.5331L22.625 43.1131V38.8921L26.3368 38.4721C26.6006 38.4424 26.8491 38.3335 27.0497 38.1596C27.2503 37.9858 27.3935 37.7551 27.4603 37.4982C27.7858 36.2382 28.2924 35.0307 28.9513 33.9099C29.0858 33.681 29.1478 33.4168 29.129 33.152C29.1103 32.8872 29.0117 32.6343 28.8463 32.4268L26.5127 29.5025L29.5025 26.5205L32.4242 28.8489C32.6322 29.0154 32.8861 29.1147 33.152 29.1334C33.4178 29.1522 33.6831 29.0896 33.9125 28.9539C35.0331 28.2898 36.2409 27.7853 37.5009 27.455C37.757 27.3885 37.9871 27.2461 38.1609 27.0466C38.3347 26.847 38.4441 26.5996 38.4748 26.3368L38.8869 22.625ZM41 30.5C35.2172 30.5 30.5 35.2171 30.5 41C30.5 46.7829 35.2172 51.5 41 51.5C46.7829 51.5 51.5 46.7829 51.5 41C51.5 35.2171 46.7829 30.5 41 30.5ZM41 33.125C45.3654 33.125 48.875 36.6346 48.875 41C48.875 45.3654 45.3654 48.875 41 48.875C36.6347 48.875 33.125 45.3654 33.125 41C33.125 36.6346 36.6347 33.125 41 33.125Z" fill="#F5F6F6"/>
</g>
<defs>
<clipPath id="clip0_10_369">
<rect width="42" height="42" fill="white" transform="translate(20 20)"/>
</clipPath>
</defs>
</svg>
