<svg width="82" height="82" viewBox="0 0 82 82" fill="none" xmlns="http://www.w3.org/2000/svg">
<rect width="82" height="82" rx="24" fill="#060523"/>
<path d="M28 38.8334C27.5714 38.8334 27.1525 38.9604 26.7962 39.1985C26.4399 39.4366 26.1622 39.775 25.9982 40.1709C25.8342 40.5668 25.7913 41.0024 25.8749 41.4227C25.9585 41.843 26.1649 42.2291 26.4679 42.5321C26.7709 42.8351 27.157 43.0415 27.5773 43.1251C27.9976 43.2087 28.4332 43.1658 28.8291 43.0018C29.225 42.8378 29.5634 42.5601 29.8015 42.2038C30.0396 41.8475 30.1666 41.4286 30.1666 41C30.1666 40.4254 29.9384 39.8743 29.532 39.468C29.1257 39.0616 28.5746 38.8334 28 38.8334ZM54 38.8334C53.5714 38.8334 53.1525 38.9604 52.7962 39.1985C52.4399 39.4366 52.1622 39.775 51.9982 40.1709C51.8342 40.5668 51.7913 41.0024 51.8749 41.4227C51.9585 41.843 52.1649 42.2291 52.4679 42.5321C52.7709 42.8351 53.157 43.0415 53.5773 43.1251C53.9976 43.2087 54.4332 43.1658 54.8291 43.0018C55.225 42.8378 55.5634 42.5601 55.8015 42.2038C56.0396 41.8475 56.1666 41.4286 56.1666 41C56.1666 40.4254 55.9384 39.8743 55.532 39.468C55.1257 39.0616 54.5746 38.8334 54 38.8334ZM58.3333 25.8334H23.6666C21.9427 25.8334 20.2894 26.5182 19.0704 27.7372C17.8514 28.9562 17.1666 30.6095 17.1666 32.3334V49.6667C17.1666 51.3906 17.8514 53.0439 19.0704 54.2629C20.2894 55.4819 21.9427 56.1667 23.6666 56.1667H58.3333C60.0572 56.1667 61.7105 55.4819 62.9295 54.2629C64.1485 53.0439 64.8333 51.3906 64.8333 49.6667V32.3334C64.8333 30.6095 64.1485 28.9562 62.9295 27.7372C61.7105 26.5182 60.0572 25.8334 58.3333 25.8334ZM60.5 49.6667C60.5 50.2413 60.2717 50.7924 59.8654 51.1988C59.459 51.6051 58.9079 51.8334 58.3333 51.8334H23.6666C23.092 51.8334 22.5409 51.6051 22.1346 51.1988C21.7282 50.7924 21.5 50.2413 21.5 49.6667V32.3334C21.5 31.7587 21.7282 31.2076 22.1346 30.8013C22.5409 30.395 23.092 30.1667 23.6666 30.1667H58.3333C58.9079 30.1667 59.459 30.395 59.8654 30.8013C60.2717 31.2076 60.5 31.7587 60.5 32.3334V49.6667ZM41 34.5C39.7144 34.5 38.4577 34.8813 37.3888 35.5955C36.3198 36.3097 35.4867 37.3249 34.9947 38.5126C34.5028 39.7003 34.3741 41.0073 34.6249 42.2681C34.8757 43.529 35.4947 44.6872 36.4038 45.5962C37.3128 46.5053 38.471 47.1243 39.7319 47.3751C40.9928 47.6259 42.2997 47.4972 43.4874 47.0053C44.6751 46.5133 45.6903 45.6802 46.4045 44.6112C47.1187 43.5423 47.5 42.2856 47.5 41C47.5 39.2761 46.8151 37.6228 45.5962 36.4038C44.3772 35.1849 42.7239 34.5 41 34.5ZM41 43.1667C40.5714 43.1667 40.1525 43.0396 39.7962 42.8016C39.4399 42.5635 39.1622 42.2251 38.9982 41.8292C38.8342 41.4333 38.7913 40.9976 38.8749 40.5773C38.9585 40.1571 39.1649 39.771 39.4679 39.468C39.7709 39.165 40.157 38.9586 40.5773 38.875C40.9976 38.7914 41.4332 38.8343 41.8291 38.9983C42.225 39.1623 42.5634 39.44 42.8015 39.7963C43.0396 40.1526 43.1666 40.5715 43.1666 41C43.1666 41.5747 42.9384 42.1258 42.532 42.5321C42.1257 42.9384 41.5746 43.1667 41 43.1667Z" fill="#F5F6F6"/>
</svg>
