<svg xmlns="http://www.w3.org/2000/svg" width="32" height="32"><path d="M16 2c-4.42 0-7.078 2.546-8.426 5.121C6.226 9.696 6 12.178 6 13v14c0 1.645 1.355 3 3 3h14c1.645 0 3-1.355 3-3V13c0-.822-.226-3.304-1.574-5.879C23.078 4.546 20.42 2 16 2Zm0 2c3.688 0 5.53 1.9 6.654 4.049C23.78 10.197 24 12.714 24 13v14c0 .571-.429 1-1 1H9c-.571 0-1-.429-1-1V13c0-.286.22-2.803 1.346-4.951C10.47 5.9 12.312 4 16 4Z" color="#000" style="font-variant-ligatures:normal;font-variant-position:normal;font-variant-caps:normal;font-variant-numeric:normal;font-variant-alternates:normal;font-feature-settings:normal;text-indent:0;text-decoration-line:none;text-decoration-style:solid;text-decoration-color:#000;text-transform:none;text-orientation:mixed;shape-padding:0;isolation:auto;mix-blend-mode:normal"/><path d="M16 6c-1.645 0-3 1.355-3 3s1.355 3 3 3 3-1.355 3-3-1.355-3-3-3zm0 2c.564 0 1 .436 1 1 0 .564-.436 1-1 1-.564 0-1-.436-1-1 0-.564.436-1 1-1zm-4.986 16a1 1 0 1 0 0 2h9.972a1 1 0 1 0 0-2zm0-4a1 1 0 1 0 0 2h9.972a1 1 0 1 0 0-2z" color="#000" style="font-variant-ligatures:normal;font-variant-position:normal;font-variant-caps:normal;font-variant-numeric:normal;font-variant-alternates:normal;font-feature-settings:normal;text-indent:0;text-decoration-line:none;text-decoration-style:solid;text-decoration-color:#000;text-transform:none;text-orientation:mixed;shape-padding:0;isolation:auto;mix-blend-mode:normal"/></svg>