<svg xmlns="http://www.w3.org/2000/svg" width="16" height="16"><path style="line-height:normal;text-indent:0;text-align:start;text-decoration-line:none;text-decoration-style:solid;text-decoration-color:#000;text-transform:none;block-progression:tb;white-space:normal;isolation:auto;mix-blend-mode:normal;solid-color:#000;solid-opacity:1" d="M6.75 0a.5.5 0 0 0-.496.445l-.178 1.57a6.296 6.296 0 0 0-.947.393l-1.236-.984a.5.5 0 0 0-.666.037L1.459 3.227a.5.5 0 0 0-.037.664l.986 1.24a6.319 6.319 0 0 0-.392.947l-1.573.174a.5.5 0 0 0-.443.5V9.25a.5.5 0 0 0 .443.498l1.57.176c.106.326.238.642.395.947l-.986 1.236a.5.5 0 0 0 .037.666l1.768 1.768a.5.5 0 0 0 .666.035l1.236-.984c.305.156.62.287.947.392l.178 1.57A.5.5 0 0 0 6.75 16h2.5a.5.5 0 0 0 .496-.443l.178-1.57c.326-.106.642-.236.947-.393l1.236.984a.5.5 0 0 0 .666-.037l1.768-1.768a.5.5 0 0 0 .037-.666l-.986-1.236c.156-.305.287-.621.392-.947l1.573-.176A.5.5 0 0 0 16 9.25V6.752a.5.5 0 0 0-.443-.498l-1.57-.176a6.318 6.318 0 0 0-.395-.947l.986-1.238a.5.5 0 0 0-.037-.664L12.773 1.46a.5.5 0 0 0-.666-.037l-1.236.984a6.31 6.31 0 0 0-.947-.392L9.746.446A.5.5 0 0 0 9.25 0h-2.5zm.445 1h1.608l.16 1.416a.5.5 0 0 0 .371.428c.48.124.94.314 1.367.566a.5.5 0 0 0 .567-.039l1.113-.887 1.137 1.135-.887 1.115a.5.5 0 0 0-.041.565c.252.427.443.889.568 1.369a.5.5 0 0 0 .428.37l1.414.16v1.607l-1.414.16a.5.5 0 0 0-.428.37c-.124.48-.317.94-.568 1.368a.5.5 0 0 0 .04.565l.888 1.115-1.137 1.135-1.113-.887a.5.5 0 0 0-.567-.04 5.33 5.33 0 0 1-1.367.57.5.5 0 0 0-.371.427L8.803 15H7.197l-.16-1.414a.5.5 0 0 0-.371-.428 5.328 5.328 0 0 1-1.367-.566.5.5 0 0 0-.567.039l-1.113.887-1.137-1.135.887-1.115a.5.5 0 0 0 .041-.565 5.332 5.332 0 0 1-.568-1.367.5.5 0 0 0-.428-.371L1 8.805V7.197l1.414-.16a.5.5 0 0 0 .428-.371c.124-.48.317-.94.568-1.367a.5.5 0 0 0-.04-.565L2.481 3.62 3.62 2.484l1.113.887a.5.5 0 0 0 .567.04 5.336 5.336 0 0 1 1.367-.571.5.5 0 0 0 .371-.426L7.195 1zM8 4C5.797 4 4 5.797 4 8c0 2.203 1.797 4 4 4 2.203 0 4-1.797 4-4 0-2.203-1.797-4-4-4zm0 1c1.663 0 3 1.337 3 3s-1.337 3-3 3-3-1.337-3-3 1.337-3 3-3z" color="#000" enable-background="accumulate" font-family="sans-serif" font-weight="400" overflow="visible"/></svg>