<svg xmlns="http://www.w3.org/2000/svg" viewBox="0 0 24 24"><path d="M1.051 17c-.509 0-.905-.255-1.021-.683-.117-.542.188-1.062.772-1.361l8.732-4.015-4.371-1.064a1.007 1.007 0 0 1-.673-.502.996.996 0 0 1-.074-.604h-.003C4.51 8.324 4.937 8 5.428 8h.003l17.087.06C23.611 8.06 24 8.7 24 9.249c0 .631-.405 1.085-1.206 1.35L1.488 16.941c-.152.04-.299.059-.437.059zm8.97-7.484 1.963.478a.75.75 0 0 1 .135 1.41l-4.947 2.274 13.87-4.123-11.021-.039zM5.428 9.5zm.052-1.088.047.011a.468.468 0 0 0-.047-.011z"/></svg>