<svg xmlns="http://www.w3.org/2000/svg" viewBox="0 0 64 64"><path d="M26 56a23 23 0 0 1 0-46 1 1 0 0 1 0 2 21 21 0 1 0 16.21 7.64 1 1 0 1 1 1.54-1.28A23 23 0 0 1 26 56zM60 22H54a1 1 0 0 1-1-1V9a1 1 0 0 1 1-1h6a1 1 0 0 1 1 1V21A1 1 0 0 1 60 22zm-5-2h4V10H55z"/><path d="M54,20H26a1,1,0,0,1,0-2H53V12H26a1,1,0,0,1,0-2H54a1,1,0,0,1,1,1v8A1,1,0,0,1,54,20Z"/><path d="M48 20a1 1 0 0 1-1-1V11a1 1 0 0 1 2 0v8A1 1 0 0 1 48 20zM26 48a1 1 0 0 1-1-1V37a1 1 0 0 1 2 0V47A1 1 0 0 1 26 48zM26 30a1 1 0 0 1-1-1V19a1 1 0 0 1 2 0V29A1 1 0 0 1 26 30zM40 34H30a1 1 0 0 1 0-2H40a1 1 0 0 1 0 2zM22 34H12a1 1 0 0 1 0-2H22a1 1 0 0 1 0 2zM16.1 43.9a1 1 0 0 1-.71-.29 1 1 0 0 1 0-1.42l7.07-7.07a1 1 0 1 1 1.42 1.42l-7.07 7.07A1 1 0 0 1 16.1 43.9zM28.83 31.17a1 1 0 0 1-.71-.29 1 1 0 0 1 0-1.42l7.07-7.07a1 1 0 0 1 1.42 1.42l-7.07 7.07A1 1 0 0 1 28.83 31.17zM35.9 43.9a1 1 0 0 1-.71-.29l-7.07-7.07a1 1 0 1 1 1.42-1.42l7.07 7.07a1 1 0 0 1 0 1.42A1 1 0 0 1 35.9 43.9zM23.17 31.17a1 1 0 0 1-.71-.29l-7.07-7.07a1 1 0 0 1 1.42-1.42l7.07 7.07a1 1 0 0 1 0 1.42A1 1 0 0 1 23.17 31.17z"/><path d="M26,48A15,15,0,1,1,41,33,15,15,0,0,1,26,48Zm0-28A13,13,0,1,0,39,33,13,13,0,0,0,26,20Z"/><path d="M26,38a5,5,0,1,1,5-5A5,5,0,0,1,26,38Zm0-8a3,3,0,1,0,3,3A3,3,0,0,0,26,30Z"/><path d="M26,43A10,10,0,1,1,36,33,10,10,0,0,1,26,43Zm0-18a8,8,0,1,0,8,8A8,8,0,0,0,26,25Z"/></svg>